<svg xmlns="http://www.w3.org/2000/svg" viewBox="0 0 512 512" width="512" height="512">
  <defs>
    <linearGradient id="grad" x1="0%" y1="0%" x2="100%" y2="100%">
      <stop offset="0%" style="stop-color:#e53935"/>
      <stop offset="100%" style="stop-color:#ff5252"/>
    </linearGradient>
  </defs>
  <rect width="512" height="512" rx="100" fill="url(#grad)"/>
  <path d="M256 120c-75 0-136 61-136 136 0 50 27 93 67 116v40c0 11 9 20 20 20h98c11 0 20-9 20-20v-40c40-23 67-66 67-116 0-75-61-136-136-136zm49 272h-98v-20h98v20zm18-67c-10 6-18 15-18 27h-34v-40c0-11 9-20 20-20 22 0 40-18 40-40s-18-40-40-40c-18 0-33 12-38 28l-36-12c10-32 40-56 74-56 44 0 80 36 80 80 0 31-18 58-48 73z" fill="#fff"/>
</svg>
